<?xml version="1.0" encoding="UTF-8"?>
<svg id="Layer_1" data-name="Layer 1" xmlns="http://www.w3.org/2000/svg" viewBox="0 0 241 64">
  <defs>
    <style>
      .cls-1 {
        fill: #e41e26;
      }
    </style>
  </defs>
  <g>
    <path class="cls-1" d="M16.18,28c-4.86-1.09-10.43-2.29-13.11-6.47-.09-.2-.2-.42-.35-.67-1.5-2.45-1.29-8.38-1.29-8.38-2.32,3.45-.89,8.89-.89,8.89l.04.04c.18.81.54,1.92.54,2.43,0,.55-.45,1.93-.57,2.66-1.56,9.22.82,18.36,7.79,24.76,7.75,7.12,18.93,9.08,28.64,4.77,5.87-2.61,11.19-7.39,9.22-14.48-2.85-10.26-21.29-11.6-30.01-13.57ZM19.58,46.41c-5.57.32-8.79-1.19-10.04-6.91.53.26.83.85,1.31,1.17,5.72,3.91,20.46-.31,27.68.79,1.93.29,4.12,1.18,5.52,2.56-8.07-2.59-16.44,1.92-24.48,2.38ZM40.43,39.34c-8.82-2.9-18.86-.52-27.71-2.28-6.02-1.2-8.34-4.96-8.58-10.94.42.28.6.87.97,1.3,4.25,4.92,17.7,5.1,24.14,6.5,5.16,1.12,11.43,3.09,15.02,7.09-1.3-.49-2.51-1.22-3.84-1.66Z"/>
    <path class="cls-1" d="M48.97,18.72C40.65,4.34,21.06,1.3,8.67,12.42c-.76.68-3.51,3.45-3.78,4.22-.21.6,1.29,1.38,1.78,1.67,10.13,6.05,30.87,6.28,38.25,14.17,3.63,3.88,4.29,9.1,3.02,14.14,5.9-7.95,5.93-19.44,1.03-27.89Z"/>
  </g>
  <path class="cls-1" d="M97.94,48.11h-12.4c-2.14-3.28-3.93-5.9-5.35-7.84-1.42-1.95-3.19-4.19-5.3-6.75h-1.25v9.83c0,.55.1,1.01.31,1.39.21.38.6.7,1.17.96.29.12.74.25,1.36.38.62.13,1.14.22,1.58.26v1.78h-17.26v-1.78c.44-.05,1.02-.11,1.74-.19.72-.08,1.23-.19,1.54-.31.58-.24.97-.55,1.16-.92.2-.37.3-.85.3-1.42v-22.82c0-.55-.08-1-.25-1.37-.17-.36-.57-.68-1.21-.96-.49-.2-1.06-.36-1.72-.5-.66-.14-1.18-.24-1.56-.3v-1.78h18.15c4.06,0,7.14.63,9.24,1.9,2.1,1.27,3.16,3.19,3.16,5.76,0,2.26-.65,4.08-1.95,5.46-1.3,1.38-3.28,2.45-5.94,3.23,1.03,1.34,2.24,2.89,3.61,4.65,1.38,1.76,2.81,3.56,4.3,5.4.47.59,1.11,1.32,1.93,2.18.81.86,1.53,1.39,2.15,1.58.35.11.79.2,1.33.27.54.08.92.12,1.15.14v1.78ZM82.41,24.06c0-2.16-.6-3.73-1.81-4.73-1.21-1-2.93-1.49-5.16-1.49h-1.8v13.54h1.73c2.23,0,3.97-.58,5.2-1.76,1.23-1.17,1.85-3.02,1.85-5.56Z"/>
  <path class="cls-1" d="M129.87,24.01h-1.73c-.44-1.23-1.2-2.48-2.28-3.74-1.08-1.26-2.15-2.01-3.21-2.23-.46-.11-1.09-.17-1.9-.19-.81-.02-1.49-.03-2.02-.03h-4.7v12.49h3.33c.84,0,1.6-.1,2.28-.3.68-.2,1.31-.58,1.87-1.14.35-.35.7-.97,1.06-1.85.36-.88.59-1.65.7-2.3h1.73v13.5h-1.73c-.09-.64-.32-1.44-.7-2.41-.37-.97-.73-1.63-1.06-1.99-.5-.55-1.09-.92-1.78-1.13s-1.47-.31-2.37-.31h-3.33v9.32c0,.97.07,1.74.22,2.31.14.57.41,1.01.81,1.31.38.29.9.48,1.56.57.66.09,1.56.14,2.7.14.53,0,1.17,0,1.92-.02.74-.01,1.4-.06,1.96-.14.64-.08,1.23-.19,1.79-.34.55-.15.97-.37,1.24-.66.73-.74,1.55-1.88,2.46-3.41.91-1.53,1.51-2.67,1.8-3.43h1.66l-.62,10.08h-30.34v-1.78c.43-.03,1-.09,1.73-.18.73-.09,1.25-.2,1.55-.32.58-.24.97-.55,1.16-.92.2-.37.3-.85.3-1.42v-22.82c0-.55-.08-1-.25-1.36-.17-.36-.57-.68-1.21-.97-.4-.18-.95-.35-1.66-.5-.71-.15-1.25-.25-1.62-.3v-1.78h28.68v8.25Z"/>
  <path class="cls-1" d="M165.3,37.74l-.64,10.37h-29.8v-1.78c.53-.05,1.15-.12,1.87-.22.71-.1,1.19-.19,1.41-.28.55-.21.93-.51,1.14-.89.21-.38.32-.87.32-1.46v-22.82c0-.55-.08-1-.25-1.36-.17-.36-.57-.68-1.21-.97-.47-.21-1.04-.38-1.7-.51-.66-.13-1.19-.22-1.58-.28v-1.78h17.76v1.78c-.49.05-1.06.11-1.72.19-.66.08-1.24.2-1.72.35-.59.2-.99.51-1.19.92-.2.42-.3.89-.3,1.42v21.27c0,1,.07,1.79.21,2.37.14.58.4,1,.8,1.28.4.29.95.48,1.65.56.71.08,1.68.13,2.93.13s2.4-.07,3.55-.22c1.15-.14,1.97-.46,2.47-.95.78-.78,1.57-1.87,2.38-3.27.81-1.41,1.46-2.69,1.95-3.86h1.66Z"/>
  <path class="cls-1" d="M196.01,19.09c1.98,1.29,3.57,3.01,4.79,5.16,1.22,2.15,1.82,4.78,1.82,7.9,0,2.74-.54,5.12-1.63,7.15-1.09,2.03-2.53,3.69-4.32,4.98-1.82,1.29-3.89,2.25-6.21,2.88-2.32.63-4.75.95-7.28.95h-16.3v-1.78c.49-.01,1.09-.06,1.82-.14.73-.08,1.22-.17,1.46-.27.55-.23.93-.54,1.14-.92.21-.39.32-.85.32-1.4v-22.93c0-.52-.1-.98-.3-1.4-.2-.42-.59-.76-1.16-1.01-.58-.26-1.19-.43-1.84-.52-.65-.09-1.14-.15-1.49-.18v-1.78h17.21c1.84,0,3.81.24,5.9.71,2.1.47,4.12,1.35,6.06,2.62ZM191.36,42.27c.74-1.22,1.29-2.66,1.63-4.34.34-1.68.51-3.61.51-5.8s-.23-4.1-.68-5.86c-.46-1.76-1.12-3.27-2.01-4.51-.88-1.25-1.98-2.21-3.29-2.9-1.31-.68-2.81-1.03-4.48-1.03-.53,0-1.14.01-1.81.03-.68.02-1.18.04-1.52.06v24.55c0,.55.07,1.03.22,1.45.14.42.39.79.74,1.11.35.32.78.57,1.29.74.51.17,1.17.26,1.99.26,1.72,0,3.19-.32,4.42-.96,1.23-.64,2.23-1.57,2.99-2.8Z"/>
  <path class="cls-1" d="M240.92,48.11h-17.62v-1.78c.82-.06,1.79-.21,2.9-.44,1.11-.24,1.66-.53,1.66-.88,0-.12-.01-.26-.03-.41-.02-.15-.09-.36-.19-.62l-2.76-6.7h-11.17c-.26.62-.54,1.35-.85,2.19-.31.84-.58,1.58-.81,2.23-.29.85-.46,1.47-.51,1.85-.05.38-.08.65-.08.8,0,.49.37.9,1.11,1.24.74.34,1.96.59,3.68.74v1.78h-13.27v-1.78c.5-.03,1.07-.11,1.7-.24.63-.13,1.13-.31,1.49-.54.62-.36,1.15-.81,1.58-1.35.43-.53.79-1.16,1.08-1.89,1.76-4.27,3.53-8.55,5.3-12.84,1.77-4.29,3.73-9.01,5.87-14.18h4.56c2.98,7.33,5.31,13.12,7,17.37,1.69,4.26,3.12,7.78,4.31,10.58.2.46.45.87.75,1.24.3.37.74.73,1.3,1.06.43.24.92.43,1.48.55.56.12,1.07.2,1.53.23v1.78ZM223.93,35.02l-4.7-11.72-4.63,11.72h9.32Z"/>
</svg>