<?xml version="1.0" encoding="UTF-8"?>
<svg id="Layer_1" data-name="Layer 1" xmlns="http://www.w3.org/2000/svg" viewBox="0 0 241 64">
  <defs>
    <style>
      .cls-1 {
        fill: #fff;
      }
    </style>
  </defs>
  <g>
    <path class="cls-1" d="M16.28,27.71c-4.85-1.09-10.42-2.29-13.09-6.46-.09-.2-.2-.42-.35-.67-1.5-2.45-1.29-8.37-1.29-8.37-2.31,3.45-.89,8.88-.89,8.88l.04.04c.18.81.54,1.91.54,2.43,0,.55-.45,1.93-.57,2.66-1.56,9.21.82,18.33,7.78,24.73,7.74,7.11,18.91,9.07,28.61,4.76,5.86-2.6,11.18-7.38,9.21-14.46-2.85-10.25-21.27-11.59-29.98-13.55ZM19.67,46.1c-5.56.32-8.78-1.19-10.03-6.9.53.26.83.84,1.3,1.17,5.71,3.9,20.44-.31,27.65.79,1.93.29,4.12,1.18,5.52,2.56-8.06-2.59-16.42,1.92-24.45,2.38ZM40.5,39.04c-8.81-2.9-18.83-.52-27.68-2.28-6.02-1.2-8.33-4.95-8.57-10.93.41.28.6.87.97,1.29,4.25,4.92,17.68,5.1,24.11,6.49,5.15,1.12,11.41,3.09,15,7.08-1.3-.49-2.5-1.22-3.83-1.66Z"/>
    <path class="cls-1" d="M49.03,18.45C40.72,4.08,21.15,1.04,8.78,12.15c-.76.68-3.51,3.45-3.78,4.22-.21.6,1.29,1.38,1.77,1.67,10.11,6.04,30.83,6.27,38.21,14.15,3.63,3.87,4.28,9.09,3.01,14.12,5.89-7.94,5.92-19.42,1.03-27.86Z"/>
  </g>
  <path class="cls-1" d="M97.94,47.8h-12.39c-2.14-3.28-3.92-5.89-5.34-7.83-1.42-1.94-3.18-4.19-5.29-6.74h-1.25v9.81c0,.55.1,1.01.31,1.39.2.38.6.7,1.17.96.29.12.74.25,1.35.38.61.13,1.14.22,1.58.26v1.78h-17.24v-1.78c.44-.05,1.02-.11,1.74-.19.72-.08,1.23-.19,1.54-.31.58-.24.96-.55,1.16-.92.2-.37.3-.85.3-1.42v-22.79c0-.55-.08-1-.25-1.37-.17-.36-.57-.68-1.21-.96-.49-.2-1.06-.36-1.72-.5-.66-.14-1.18-.24-1.56-.3v-1.78h18.13c4.05,0,7.13.63,9.23,1.9,2.1,1.27,3.15,3.18,3.15,5.75,0,2.26-.65,4.08-1.95,5.45-1.3,1.37-3.28,2.45-5.93,3.22,1.03,1.34,2.24,2.88,3.61,4.65,1.37,1.76,2.8,3.56,4.29,5.4.47.59,1.11,1.32,1.92,2.17.81.86,1.53,1.39,2.15,1.58.35.11.79.2,1.33.27.54.08.92.12,1.15.14v1.78ZM82.43,23.78c0-2.16-.6-3.73-1.81-4.73-1.21-.99-2.93-1.49-5.16-1.49h-1.8v13.53h1.73c2.23,0,3.96-.58,5.19-1.75,1.23-1.17,1.84-3.02,1.84-5.56Z"/>
  <path class="cls-1" d="M129.83,23.73h-1.73c-.44-1.23-1.2-2.47-2.28-3.73-1.08-1.26-2.15-2-3.21-2.23-.46-.11-1.09-.17-1.9-.19-.81-.02-1.48-.03-2.02-.03h-4.69v12.48h3.32c.83,0,1.59-.1,2.28-.3.68-.2,1.31-.58,1.87-1.14.35-.35.7-.96,1.06-1.84.36-.88.59-1.65.69-2.3h1.73v13.48h-1.73c-.09-.64-.32-1.44-.69-2.4-.37-.96-.73-1.63-1.06-1.99-.5-.55-1.09-.92-1.78-1.13s-1.47-.31-2.37-.31h-3.32v9.31c0,.97.07,1.74.22,2.31.14.57.41,1.01.81,1.31.38.29.9.48,1.56.57.66.09,1.56.14,2.7.14.53,0,1.17,0,1.91-.02.74-.01,1.4-.06,1.96-.14.64-.08,1.23-.19,1.79-.34.55-.15.97-.37,1.24-.66.73-.74,1.55-1.88,2.46-3.4.91-1.53,1.51-2.67,1.8-3.43h1.66l-.61,10.06h-30.31v-1.78c.42-.03,1-.09,1.73-.18.73-.09,1.24-.2,1.55-.32.58-.24.96-.55,1.16-.92.2-.37.3-.85.3-1.42v-22.79c0-.55-.08-1-.25-1.35-.17-.36-.57-.68-1.21-.97-.39-.18-.95-.35-1.66-.5-.71-.15-1.25-.25-1.62-.3v-1.78h28.65v8.24Z"/>
  <path class="cls-1" d="M165.22,37.44l-.64,10.36h-29.76v-1.78c.53-.05,1.15-.12,1.87-.22.71-.1,1.18-.19,1.41-.28.55-.21.93-.51,1.14-.89.21-.38.32-.87.32-1.46v-22.79c0-.55-.08-1-.25-1.35-.17-.36-.57-.68-1.21-.97-.47-.21-1.04-.38-1.7-.51-.66-.13-1.19-.22-1.58-.28v-1.78h17.74v1.78c-.49.05-1.06.11-1.72.19-.66.08-1.23.2-1.72.35-.59.2-.99.5-1.18.92-.2.42-.3.89-.3,1.42v21.25c0,1,.07,1.79.2,2.37.14.58.4,1,.8,1.28.39.29.94.47,1.65.56.71.08,1.68.13,2.93.13s2.39-.07,3.54-.22c1.15-.14,1.97-.46,2.47-.94.77-.77,1.57-1.86,2.38-3.27.81-1.4,1.46-2.69,1.95-3.86h1.66Z"/>
  <path class="cls-1" d="M195.89,18.81c1.97,1.29,3.57,3.01,4.78,5.16,1.21,2.15,1.82,4.78,1.82,7.89,0,2.73-.54,5.11-1.63,7.14-1.09,2.03-2.52,3.69-4.32,4.98-1.82,1.29-3.89,2.25-6.21,2.88-2.32.63-4.74.94-7.28.94h-16.28v-1.78c.49-.01,1.09-.06,1.82-.14.73-.08,1.21-.17,1.46-.27.55-.23.93-.54,1.14-.92.21-.39.32-.85.32-1.4v-22.91c0-.52-.1-.98-.3-1.4-.2-.42-.58-.76-1.16-1.01-.58-.26-1.19-.43-1.83-.52-.65-.09-1.14-.15-1.49-.18v-1.78h17.19c1.84,0,3.8.24,5.9.71,2.1.47,4.11,1.34,6.06,2.62ZM191.25,41.97c.74-1.21,1.29-2.66,1.63-4.34.34-1.68.51-3.61.51-5.8s-.23-4.09-.68-5.85c-.46-1.76-1.12-3.26-2-4.51-.88-1.24-1.98-2.21-3.29-2.89-1.31-.68-2.8-1.02-4.47-1.02-.53,0-1.14.01-1.81.03-.68.02-1.18.04-1.51.06v24.52c0,.55.07,1.03.22,1.45.14.42.39.79.74,1.1.35.32.78.57,1.29.74.51.17,1.17.26,1.99.26,1.72,0,3.19-.32,4.42-.96,1.23-.64,2.22-1.57,2.98-2.8Z"/>
  <path class="cls-1" d="M240.75,47.8h-17.6v-1.78c.82-.06,1.78-.21,2.89-.44,1.11-.24,1.66-.53,1.66-.88,0-.12-.01-.26-.03-.41-.02-.15-.09-.36-.19-.61l-2.76-6.69h-11.16c-.26.62-.54,1.35-.85,2.19-.31.84-.58,1.58-.81,2.23-.29.85-.46,1.47-.51,1.84-.05.38-.08.65-.08.8,0,.49.37.9,1.1,1.24.74.34,1.96.59,3.68.74v1.78h-13.25v-1.78c.5-.03,1.07-.11,1.7-.24.63-.13,1.13-.31,1.49-.54.62-.36,1.15-.81,1.58-1.34.43-.53.79-1.16,1.08-1.89,1.76-4.27,3.53-8.54,5.29-12.82,1.77-4.28,3.72-9,5.86-14.16h4.55c2.98,7.32,5.31,13.1,6.99,17.35,1.69,4.25,3.12,7.77,4.3,10.57.2.46.45.87.75,1.24.3.37.74.73,1.3,1.06.42.24.92.43,1.48.55.56.12,1.07.2,1.53.23v1.78ZM223.79,34.73l-4.69-11.7-4.62,11.7h9.31Z"/>
</svg>