<?xml version="1.0" encoding="UTF-8"?>
<svg id="Layer_1" xmlns="http://www.w3.org/2000/svg" version="1.1" viewBox="0 0 2618 674">
  <!-- Generator: Adobe Illustrator 29.5.0, SVG Export Plug-In . SVG Version: 2.1.0 Build 137)  -->
  <defs>
    <style>
      .st0, .st1 {
        fill: #ed2024;
      }

      .st1 {
        font-family: Vani-Bold, Vani;
        font-size: 478.43px;
        font-weight: 700;
      }
    </style>
  </defs>
  <text class="st1" transform="translate(642.69 506.45)"><tspan x="0" y="0">RELDA</tspan></text>
  <g>
    <path class="st0" d="M240.37,517.88c-66.48-61.04-89.13-148.05-74.26-235.95,1.18-7,5.44-20.13,5.44-25.39,0-5.75-4.68-19.23-5.84-26.81-3.96-26.02,10.68-33.29,10.68-33.29,10.83,71.71,80.24,86.48,138.79,99.66,83.07,18.71,258.77,31.47,285.96,129.27,18.79,67.58-31.93,113.1-87.85,137.95-92.52,41.12-199.07,22.36-272.91-45.44ZM582.79,420.06c-34.24-38.1-93.95-56.91-143.13-67.55-61.33-13.28-189.46-15-229.98-61.91-3.47-4.02-5.25-9.69-9.21-12.34,2.29,57.02,24.34,92.85,81.73,104.27,84.35,16.78,180-5.96,264.02,21.71,12.68,4.18,24.16,11.14,36.57,15.83ZM580.74,448.84c-13.34-13.19-34.24-21.63-52.63-24.43-68.81-10.48-209.28,29.71-263.8-7.54-4.56-3.12-7.39-8.66-12.44-11.17,11.89,54.49,42.58,68.91,95.65,65.86,76.56-4.39,156.37-47.39,233.22-22.72Z"/>
    <path class="st0" d="M617.76,473.52c12.13-47.97,5.86-97.73-28.75-134.69-70.37-75.14-268.02-77.37-364.52-134.99-4.61-2.76-18.93-10.18-16.92-15.94,2.57-7.34,28.81-33.75,36.01-40.22,118.06-106,304.73-76.96,384.03,60.04,46.64,80.58,46.32,190.07-9.86,265.8Z"/>
    <path class="st0" d="M166.04,232.98s-13.57-51.8,8.5-84.69c0,0-1.95,56.47,12.33,79.84,14.28,23.37-3.25,23.8-3.25,23.8l-17.59-18.95Z"/>
  </g>
</svg>