<?xml version="1.0" encoding="UTF-8"?>
<svg id="Layer_1" xmlns="http://www.w3.org/2000/svg" version="1.1" viewBox="0 0 2618 674">
  <!-- Generator: Adobe Illustrator 29.5.0, SVG Export Plug-In . SVG Version: 2.1.0 Build 137)  -->
  <defs>
    <style>
      .st0, .st1 {
        fill: #ed2024;
      }

      .st1 {
        font-family: Vani-Bold, Vani;
        font-size: 478.43px;
        font-weight: 700;
      }
    </style>
  </defs>
  <text class="st1" transform="translate(642.69 506.45)"><tspan x="0" y="0">RELDA</tspan></text>
  <g>
    <path class="st0" d="M139.32,539.61c-71.03-65.22-95.23-158.18-79.34-252.09,1.27-7.48,5.81-21.51,5.81-27.13,0-6.14-5.01-20.54-6.24-28.64-4.23-27.79,11.41-35.57,11.41-35.57,11.57,76.62,85.73,92.39,148.28,106.48,88.75,19.99,276.47,33.62,305.52,138.11,20.07,72.2-34.12,120.84-93.86,147.39-98.85,43.93-212.69,23.89-291.58-48.55ZM505.16,435.1c-36.58-40.7-100.38-60.8-152.92-72.17-65.52-14.19-202.42-16.02-245.72-66.14-3.71-4.3-5.61-10.35-9.84-13.19,2.45,60.92,26.01,99.2,87.32,111.4,90.12,17.93,192.31-6.37,282.08,23.2,13.54,4.46,25.81,11.9,39.07,16.91ZM502.96,465.84c-14.26-14.09-36.58-23.11-56.23-26.11-73.51-11.2-223.6,31.74-281.84-8.05-4.87-3.33-7.89-9.26-13.3-11.94,12.7,58.22,45.49,73.62,102.19,70.37,81.79-4.69,167.07-50.63,249.18-24.27Z"/>
    <path class="st0" d="M542.51,492.22c12.96-51.25,6.26-104.42-30.72-143.9-75.18-80.28-286.36-82.66-389.45-144.23-4.93-2.94-20.22-10.88-18.07-17.03,2.74-7.84,30.78-36.06,38.48-42.97,126.13-113.25,325.57-82.23,410.29,64.15,49.83,86.09,49.49,203.07-10.53,283.98Z"/>
    <path class="st0" d="M59.9,235.22s-14.5-55.35,9.08-90.48c0,0-2.08,60.33,13.18,85.3,15.26,24.97-3.47,25.43-3.47,25.43l-18.79-20.24Z"/>
  </g>
</svg>